<svg width="20" height="20" viewBox="0 0 20 20" fill="none" xmlns="http://www.w3.org/2000/svg">
<circle cx="10" cy="10" r="10" fill="#FF9C27"/>
<path d="M10.0001 3.86362C8.78648 3.86362 7.60007 4.22351 6.59095 4.89778C5.58183 5.57205 4.79532 6.53042 4.33088 7.6517C3.86643 8.77297 3.74491 10.0068 3.98168 11.1971C4.21845 12.3875 4.80289 13.4809 5.66107 14.339C6.51926 15.1972 7.61265 15.7817 8.80299 16.0184C9.99333 16.2552 11.2271 16.1337 12.3484 15.6692C13.4697 15.2048 14.4281 14.4183 15.1023 13.4092C15.7766 12.4 16.1365 11.2136 16.1365 9.99998C16.1347 8.37308 15.4876 6.81334 14.3372 5.66294C13.1868 4.51255 11.627 3.86545 10.0001 3.86362ZM10.0001 14.7727C9.05618 14.7727 8.13342 14.4928 7.34855 13.9684C6.56368 13.4439 5.95195 12.6985 5.59071 11.8264C5.22947 10.9543 5.13496 9.99469 5.31912 9.06887C5.50327 8.14305 5.95783 7.29263 6.62531 6.62515C7.29279 5.95767 8.1432 5.50312 9.06902 5.31896C9.99484 5.1348 10.9545 5.22932 11.8266 5.59056C12.6987 5.95179 13.4441 6.56352 13.9685 7.3484C14.4929 8.13327 14.7729 9.05602 14.7729 9.99998C14.7714 11.2653 14.2681 12.4785 13.3734 13.3732C12.4786 14.268 11.2655 14.7713 10.0001 14.7727ZM12.5001 11.1363C12.4996 11.6184 12.3078 12.0805 11.967 12.4214C11.6261 12.7622 11.164 12.954 10.682 12.9545V13.1818C10.682 13.3626 10.6101 13.536 10.4823 13.6639C10.3544 13.7918 10.181 13.8636 10.0001 13.8636C9.81931 13.8636 9.64588 13.7918 9.51802 13.6639C9.39015 13.536 9.31832 13.3626 9.31832 13.1818V12.9545H8.6365C8.45567 12.9545 8.28225 12.8827 8.15438 12.7548C8.02652 12.627 7.95468 12.4535 7.95468 12.2727C7.95468 12.0919 8.02652 11.9185 8.15438 11.7906C8.28225 11.6627 8.45567 11.5909 8.6365 11.5909H10.682C10.8025 11.5909 10.9181 11.543 11.0034 11.4578C11.0886 11.3725 11.1365 11.2569 11.1365 11.1363C11.1365 11.0158 11.0886 10.9002 11.0034 10.8149C10.9181 10.7297 10.8025 10.6818 10.682 10.6818H9.31832C8.83611 10.6818 8.37364 10.4902 8.03267 10.1493C7.69169 9.80829 7.50014 9.34583 7.50014 8.86362C7.50014 8.3814 7.69169 7.91894 8.03267 7.57797C8.37364 7.23699 8.83611 7.04543 9.31832 7.04543V6.81816C9.31832 6.63733 9.39015 6.46391 9.51802 6.33604C9.64588 6.20818 9.81931 6.13634 10.0001 6.13634C10.181 6.13634 10.3544 6.20818 10.4823 6.33604C10.6101 6.46391 10.682 6.63733 10.682 6.81816V7.04543H11.3638C11.5446 7.04543 11.718 7.11727 11.8459 7.24513C11.9738 7.373 12.0456 7.54642 12.0456 7.72725C12.0456 7.90808 11.9738 8.08151 11.8459 8.20937C11.718 8.33724 11.5446 8.40907 11.3638 8.40907H9.31832C9.19776 8.40907 9.08215 8.45696 8.9969 8.5422C8.91166 8.62745 8.86377 8.74306 8.86377 8.86362C8.86377 8.98417 8.91166 9.09978 8.9969 9.18503C9.08215 9.27027 9.19776 9.31816 9.31832 9.31816H10.682C11.164 9.31872 11.6261 9.51045 11.967 9.85131C12.3078 10.1922 12.4996 10.6543 12.5001 11.1363Z" fill="white"/>
</svg>
