<svg width="15" height="16" viewBox="0 0 15 16" fill="none" xmlns="http://www.w3.org/2000/svg">
<path d="M7.493 0.5C3.583 0.5 0.416748 3.86 0.416748 8C0.416748 12.14 3.583 15.5 7.493 15.5C11.4101 15.5 14.5834 12.14 14.5834 8C14.5834 3.86 11.4101 0.5 7.493 0.5ZM12.4017 5H10.3122C10.0905 4.07109 9.7622 3.17442 9.33467 2.33C10.6267 2.801 11.7155 3.74879 12.4017 5ZM7.50008 2.03C8.088 2.93 8.54842 3.9275 8.853 5H6.14717C6.45175 3.9275 6.91217 2.93 7.50008 2.03ZM2.01758 9.5C1.90425 9.02 1.83341 8.5175 1.83341 8C1.83341 7.4825 1.90425 6.98 2.01758 6.5H4.41175C4.35508 6.995 4.31258 7.49 4.31258 8C4.31258 8.51 4.35508 9.005 4.41175 9.5H2.01758ZM2.59841 11H4.688C4.91466 11.9375 5.2405 12.8375 5.6655 13.67C4.37206 13.2016 3.28255 12.2531 2.59841 11ZM4.688 5H2.59841C3.28255 3.74688 4.37206 2.79843 5.6655 2.33C5.23797 3.17442 4.90969 4.07109 4.688 5ZM7.50008 13.97C6.91217 13.07 6.45175 12.0725 6.14717 11H8.853C8.54842 12.0725 8.088 13.07 7.50008 13.97ZM9.15758 9.5H5.84258C5.77883 9.005 5.72925 8.51 5.72925 8C5.72925 7.49 5.77883 6.9875 5.84258 6.5H9.15758C9.22133 6.9875 9.27092 7.49 9.27092 8C9.27092 8.51 9.22133 9.005 9.15758 9.5ZM9.33467 13.67C9.75967 12.8375 10.0855 11.9375 10.3122 11H12.4017C11.7155 12.2512 10.6267 13.199 9.33467 13.67ZM10.5884 9.5C10.6451 9.005 10.6876 8.51 10.6876 8C10.6876 7.49 10.6451 6.995 10.5884 6.5H12.9826C13.0959 6.98 13.1667 7.4825 13.1667 8C13.1667 8.5175 13.0959 9.02 12.9826 9.5H10.5884Z" fill="white"/>
</svg>
